<svg id="coco-logo" xmlns="http://www.w3.org/2000/svg" viewBox="0 0 512 100">
    <defs>
        <style>
            .co1 { fill: #005af0; }
            .co2 { fill: #d400b6; }
        </style>
    </defs>
    <g id="coco">
        <path id="co1" class="co1"
            d="M0,0H104.9381V9.5236H9.225V90.4764h95.7131V100H0ZM235.2425,0V100H138.38V0Zm-9.225,9.5236H147.6049V90.4764h78.4126Zm-9.225,71.4292H156.83V19.0472h59.9626Zm-9.225-52.3821H166.0549V71.4293h41.5126ZM18.45,80.9528h86.4881V71.4293H27.675V28.5707h77.2631V19.0472H18.45Z" />
        <path id="co2" class="co2"
            d="M276.7575,0h104.938V9.5236h-95.713V90.4764h95.713V100H276.7575ZM512,0V100H415.1374V0Zm-9.225,9.5236H424.3624V90.4764H502.775ZM493.55,80.9528H433.5874V19.0472H493.55Zm-9.225-52.3821H442.8124V71.4293H484.325ZM295.2075,80.9528h86.488V71.4293h-77.263V28.5707h77.263V19.0472h-86.488Z" />
    </g>
</svg>